<svg id="Layer_3" enable-background="new 0 0 64 64" height="512" viewBox="0 0 64 64" width="512" xmlns="http://www.w3.org/2000/svg"><path d="m56 32v-12.5c0-1.381 1.119-2.5 2.5-2.5 1.381 0 2.5 1.119 2.5 2.5v22l-9 11.5v8h-9v-16z" fill="#4bbee5"/><path d="m21 45v16h-9v-8l-9-11.5v-22c0-1.381 1.119-2.5 2.5-2.5 1.381 0 2.5 1.119 2.5 2.5v12.5z" fill="#4bbee5"/><path d="m22 6h20v20h-20z" fill="#f82f45"/><circle cx="32" cy="12" fill="#fda22e" r="2"/><circle cx="28" cy="19" fill="#fda22e" r="2"/><g fill="#171526"><path d="m11 53.345v7.655c0 .552.447 1 1 1h9c.553 0 1-.448 1-1v-16c0-.265-.105-.52-.293-.707l-12.707-12.707v-12.086c0-1.93-1.57-3.5-3.5-3.5s-3.5 1.57-3.5 3.5v22c0 .224.075.44.213.616zm-7-33.845c0-.827.673-1.5 1.5-1.5s1.5.673 1.5 1.5v12.5c0 .265.105.52.293.707l1.449 1.45c-1.583.469-2.742 1.938-2.742 3.672 0 1.022.398 1.983 1.121 2.707l6.172 6.171 1.414-1.414-6.172-6.171c-.345-.346-.535-.805-.535-1.293 0-1.009.82-1.829 1.828-1.829.481 0 .952.195 1.293.536l8.879 8.878v14.586h-7v-7c0-.224-.075-.44-.213-.616l-8.787-11.229z"/><path d="m58.5 16c-1.93 0-3.5 1.57-3.5 3.5v12.086l-12.707 12.707c-.188.187-.293.442-.293.707v16c0 .552.447 1 1 1h9c.553 0 1-.448 1-1v-7.655l8.787-11.229c.138-.176.213-.392.213-.616v-22c0-1.93-1.57-3.5-3.5-3.5zm1.5 25.155-8.787 11.229c-.138.176-.213.392-.213.616v7h-7v-14.586l8.879-8.879c.341-.34.811-.535 1.293-.535 1.008 0 1.828.82 1.828 1.829 0 .488-.19.948-.535 1.293l-6.172 6.171 1.414 1.414 6.172-6.172c.723-.723 1.121-1.684 1.121-2.706 0-1.734-1.159-3.203-2.742-3.672l1.449-1.45c.188-.187.293-.442.293-.707v-12.5c0-.827.673-1.5 1.5-1.5s1.5.673 1.5 1.5z"/><path d="m18 23v2h3v1c0 .552.447 1 1 1h1v3h2v-3h2v3h2v-3h2v3h2v-3h2v3h2v-3h2v3h2v-3h1c.553 0 1-.448 1-1v-1h3v-2h-3v-2h3v-2h-3v-2h3v-2h-3v-2h3v-2h-3v-2h3v-2h-3v-1c0-.552-.447-1-1-1h-1v-3h-2v3h-2v-3h-2v3h-2v-3h-2v3h-2v-3h-2v3h-2v-3h-2v3h-1c-.553 0-1 .448-1 1v1h-3v2h3v2h-3v2h3v2h-3v2h3v2h-3v2h3v2zm9-4c0-.551.448-1 1-1s1 .449 1 1-.448 1-1 1-1-.449-1-1zm2 2.816c.847-.302 1.514-.969 1.816-1.816h6.184v5h-8zm12 3.184h-2v-6c0-.552-.447-1-1-1h-7.184c-.414-1.161-1.514-2-2.816-2-1.654 0-3 1.346-3 3 0 1.302.839 2.402 2 2.816v3.184h-4v-12h6.184c.414 1.161 1.514 2 2.816 2s2.402-.839 2.816-2h3.184c.553 0 1-.448 1-1v-5h2zm-10-13c0-.551.448-1 1-1s1 .449 1 1-.448 1-1 1-1-.449-1-1zm6-5v4h-2.184c-.414-1.161-1.514-2-2.816-2s-2.402.839-2.816 2h-6.184v-4z"/><path d="m27 32h2v2h-2z"/><path d="m31 32h2v2h-2z"/><path d="m35 32h2v2h-2z"/></g></svg>