<svg height="368pt" viewBox="0 0 368 368" width="368pt" xmlns="http://www.w3.org/2000/svg"><path d="m344 0h-320c-13.230469 0-24 10.769531-24 24v320c0 13.230469 10.769531 24 24 24h320c13.230469 0 24-10.769531 24-24v-320c0-13.230469-10.769531-24-24-24zm8 344c0 4.414062-3.59375 8-8 8h-320c-4.40625 0-8-3.585938-8-8v-320c0-4.414062 3.59375-8 8-8h320c4.40625 0 8 3.585938 8 8zm0 0"/><path d="m296 64h-64c-20.34375 0-38.191406 10.902344-48 27.175781-9.808594-16.273437-27.65625-27.175781-48-27.175781h-64c-4.414062 0-8 3.574219-8 8v224c0 4.425781 3.585938 8 8 8h224c4.414062 0 8-3.574219 8-8v-224c0-4.425781-3.585938-8-8-8zm-64 16h56v160h-56c-15.671875 0-29.824219 6.519531-40 16.9375v-136.9375c0-22.054688 17.945312-40 40-40zm-152 0h56c22.054688 0 40 17.945312 40 40v136.9375c-10.175781-10.417969-24.328125-16.9375-40-16.9375h-56zm0 176h56c19.3125 0 35.472656 13.769531 39.191406 32h-95.191406zm112.808594 32c3.71875-18.230469 19.871094-32 39.191406-32h56v32zm0 0"/></svg>